<svg xmlns="http://www.w3.org/2000/svg" xmlns:xlink="http://www.w3.org/1999/xlink" version="1.1" width="256" height="256" viewBox="0 0 256 256" xml:space="preserve">

<defs>
</defs>
<g style="stroke: none; stroke-width: 0; stroke-dasharray: none; stroke-linecap: butt; stroke-linejoin: miter; stroke-miterlimit: 10; fill: none; fill-rule: nonzero; opacity: 1;" transform="translate(1.4065934065934016 1.4065934065934016) scale(2.81 2.81)" >
	<circle cx="45.247" cy="44.67700000000001" r="11.337" style="stroke: none; stroke-width: 1; stroke-dasharray: none; stroke-linecap: butt; stroke-linejoin: miter; stroke-miterlimit: 10; fill: rgb(248,204,29); fill-rule: nonzero; opacity: 1;" transform="  matrix(1 0 0 1 0 0) "/>
	<path d="M 62.406 27.516 c -9.64 -9.642 -25.331 -9.643 -34.973 0 c -6.493 6.493 -7.965 12.39 -9.389 18.093 c -1.366 5.475 -2.657 10.647 -8.327 16.318 c -0.438 0.437 -0.438 1.146 0 1.584 l 0.798 0.798 l -3.35 3.35 c -0.001 0.001 -0.002 0.001 -0.003 0.002 s -0.001 0.002 -0.002 0.003 l -5.881 5.881 c -1.705 1.704 -1.705 4.479 0 6.184 l 8.915 8.913 c 0.826 0.827 1.924 1.282 3.093 1.282 c 1.168 0 2.266 -0.455 3.092 -1.281 l 9.236 -9.235 l 0.797 0.797 c 0.21 0.21 0.495 0.328 0.792 0.328 s 0.582 -0.118 0.792 -0.328 c 5.67 -5.67 10.842 -6.961 16.318 -8.327 c 5.704 -1.424 11.601 -2.895 18.093 -9.39 C 72.049 52.848 72.049 37.159 62.406 27.516 z M 14.794 87.06 c -0.806 0.804 -2.21 0.805 -3.015 -0.001 l -8.915 -8.913 c -0.831 -0.832 -0.831 -2.184 0 -3.016 l 1.082 -1.082 l 5.966 5.965 c 0.219 0.218 0.505 0.327 0.792 0.327 c 0.287 0 0.574 -0.109 0.792 -0.328 c 0.438 -0.437 0.438 -1.146 0 -1.585 L 5.53 72.462 l 2.424 -2.424 l 5.965 5.966 c 0.219 0.219 0.505 0.328 0.792 0.328 s 0.574 -0.109 0.792 -0.327 c 0.438 -0.438 0.438 -1.147 0 -1.585 l -5.966 -5.966 l 2.561 -2.561 l 11.93 11.931 L 14.794 87.06 z M 60.821 60.906 c -6.053 6.054 -11.395 7.387 -17.051 8.798 c -5.287 1.32 -10.747 2.682 -16.555 8.138 l -6.775 -6.776 l 13.863 -13.863 c 0.438 -0.437 0.438 -1.146 0 -1.584 c -0.437 -0.438 -1.147 -0.438 -1.585 0 L 18.857 69.483 l -6.775 -6.776 c 5.455 -5.807 6.817 -11.267 8.137 -16.555 c 1.412 -5.656 2.745 -10.997 8.799 -17.051 c 8.769 -8.769 23.036 -8.769 31.804 0 C 69.591 37.869 69.591 52.137 60.821 60.906 z" style="stroke: none; stroke-width: 1; stroke-dasharray: none; stroke-linecap: butt; stroke-linejoin: miter; stroke-miterlimit: 10; fill: rgb(0,0,0); fill-rule: nonzero; opacity: 1;" transform=" matrix(1 0 0 1 0 0) " stroke-linecap="round" />
	<path d="M 66.664 67.218 c -0.286 0 -0.574 -0.109 -0.792 -0.327 l -8.762 -8.761 c -0.438 -0.438 -0.438 -1.147 -0.001 -1.585 c 0.438 -0.438 1.148 -0.437 1.585 -0.001 l 8.762 8.761 c 0.438 0.438 0.438 1.147 0.001 1.585 C 67.238 67.109 66.95 67.218 66.664 67.218 z" style="stroke: none; stroke-width: 1; stroke-dasharray: none; stroke-linecap: butt; stroke-linejoin: miter; stroke-miterlimit: 10; fill: rgb(248,204,29); fill-rule: nonzero; opacity: 1;" transform=" matrix(1 0 0 1 0 0) " stroke-linecap="round" />
	<path d="M 32.572 33.127 c -0.287 0 -0.574 -0.11 -0.792 -0.328 l -8.762 -8.762 c -0.438 -0.438 -0.438 -1.147 0 -1.585 c 0.437 -0.437 1.147 -0.437 1.585 0 l 8.762 8.762 c 0.438 0.438 0.438 1.147 0 1.585 C 33.146 33.017 32.859 33.127 32.572 33.127 z" style="stroke: none; stroke-width: 1; stroke-dasharray: none; stroke-linecap: butt; stroke-linejoin: miter; stroke-miterlimit: 10; fill: rgb(248,204,29); fill-rule: nonzero; opacity: 1;" transform=" matrix(1 0 0 1 0 0) " stroke-linecap="round" />
	<path d="M 75.539 45.792 H 63.148 c -0.618 0 -1.12 -0.502 -1.12 -1.12 s 0.502 -1.12 1.12 -1.12 h 12.391 c 0.618 0 1.12 0.502 1.12 1.12 S 76.158 45.792 75.539 45.792 z" style="stroke: none; stroke-width: 1; stroke-dasharray: none; stroke-linecap: butt; stroke-linejoin: miter; stroke-miterlimit: 10; fill: rgb(248,204,29); fill-rule: nonzero; opacity: 1;" transform=" matrix(1 0 0 1 0 0) " stroke-linecap="round" />
	<path d="M 45.237 27.881 c -0.619 0 -1.12 -0.502 -1.12 -1.12 V 14.369 c 0 -0.619 0.502 -1.12 1.12 -1.12 c 0.619 0 1.12 0.502 1.12 1.12 V 26.76 C 46.357 27.379 45.856 27.881 45.237 27.881 z" style="stroke: none; stroke-width: 1; stroke-dasharray: none; stroke-linecap: butt; stroke-linejoin: miter; stroke-miterlimit: 10; fill: rgb(248,204,29); fill-rule: nonzero; opacity: 1;" transform=" matrix(1 0 0 1 0 0) " stroke-linecap="round" />
	<path d="M 57.902 33.127 c -0.286 0 -0.574 -0.11 -0.793 -0.328 c -0.437 -0.438 -0.437 -1.147 0.001 -1.585 l 8.762 -8.762 c 0.436 -0.437 1.146 -0.437 1.585 0 c 0.437 0.438 0.437 1.147 -0.001 1.585 l -8.762 8.762 C 58.475 33.017 58.188 33.127 57.902 33.127 z" style="stroke: none; stroke-width: 1; stroke-dasharray: none; stroke-linecap: butt; stroke-linejoin: miter; stroke-miterlimit: 10; fill: rgb(248,204,29); fill-rule: nonzero; opacity: 1;" transform=" matrix(1 0 0 1 0 0) " stroke-linecap="round" />
	<path d="M 19.542 15.168 h -1.568 V 13.6 c 0 -0.619 -0.502 -1.12 -1.12 -1.12 c -0.619 0 -1.12 0.502 -1.12 1.12 v 1.568 h -1.568 c -0.619 0 -1.12 0.502 -1.12 1.12 c 0 0.619 0.502 1.12 1.12 1.12 h 1.568 v 1.568 c 0 0.619 0.502 1.12 1.12 1.12 c 0.619 0 1.12 -0.502 1.12 -1.12 v -1.568 h 1.568 c 0.619 0 1.12 -0.502 1.12 -1.12 C 20.663 15.67 20.161 15.168 19.542 15.168 z" style="stroke: none; stroke-width: 1; stroke-dasharray: none; stroke-linecap: butt; stroke-linejoin: miter; stroke-miterlimit: 10; fill: rgb(248,204,29); fill-rule: nonzero; opacity: 1;" transform=" matrix(1 0 0 1 0 0) " stroke-linecap="round" />
	<path d="M 77.035 14.456 h -1.568 v -1.568 c 0 -0.619 -0.502 -1.12 -1.12 -1.12 c -0.618 0 -1.12 0.502 -1.12 1.12 v 1.568 h -1.569 c -0.618 0 -1.12 0.502 -1.12 1.12 c 0 0.619 0.502 1.121 1.12 1.121 h 1.569 v 1.568 c 0 0.619 0.502 1.12 1.12 1.12 c 0.618 0 1.12 -0.502 1.12 -1.12 v -1.568 h 1.568 c 0.618 0 1.12 -0.502 1.12 -1.121 C 78.155 14.957 77.654 14.456 77.035 14.456 z" style="stroke: none; stroke-width: 1; stroke-dasharray: none; stroke-linecap: butt; stroke-linejoin: miter; stroke-miterlimit: 10; fill: rgb(248,204,29); fill-rule: nonzero; opacity: 1;" transform=" matrix(1 0 0 1 0 0) " stroke-linecap="round" />
	<path d="M 76.41 72.036 h -1.569 v -1.568 c 0 -0.618 -0.502 -1.12 -1.12 -1.12 c -0.618 0 -1.12 0.502 -1.12 1.12 v 1.568 h -1.568 c -0.618 0 -1.12 0.502 -1.12 1.12 c 0 0.618 0.502 1.12 1.12 1.12 h 1.568 v 1.568 c 0 0.618 0.502 1.12 1.12 1.12 c 0.618 0 1.12 -0.502 1.12 -1.12 v -1.568 h 1.569 c 0.618 0 1.12 -0.502 1.12 -1.12 C 77.53 72.537 77.028 72.036 76.41 72.036 z" style="stroke: none; stroke-width: 1; stroke-dasharray: none; stroke-linecap: butt; stroke-linejoin: miter; stroke-miterlimit: 10; fill: rgb(248,204,29); fill-rule: nonzero; opacity: 1;" transform=" matrix(1 0 0 1 0 0) " stroke-linecap="round" />
	<path d="M 45.364 7.86 c -2.146 0 -3.892 -1.746 -3.892 -3.892 s 1.746 -3.892 3.892 -3.892 c 2.146 0 3.892 1.746 3.892 3.892 S 47.51 7.86 45.364 7.86 z M 45.364 2.316 c -0.911 0 -1.651 0.741 -1.651 1.651 s 0.741 1.651 1.651 1.651 c 0.911 0 1.652 -0.741 1.652 -1.651 S 46.275 2.316 45.364 2.316 z" style="stroke: none; stroke-width: 1; stroke-dasharray: none; stroke-linecap: butt; stroke-linejoin: miter; stroke-miterlimit: 10; fill: rgb(248,204,29); fill-rule: nonzero; opacity: 1;" transform=" matrix(1 0 0 1 0 0) " stroke-linecap="round" />
	<path d="M 86.108 48.603 c -2.147 0 -3.892 -1.746 -3.892 -3.892 c 0 -2.146 1.745 -3.892 3.892 -3.892 c 2.147 0 3.892 1.746 3.892 3.892 C 90 46.857 88.255 48.603 86.108 48.603 z M 86.108 43.06 c -0.911 0 -1.652 0.741 -1.652 1.651 c 0 0.911 0.741 1.652 1.652 1.652 s 1.652 -0.742 1.652 -1.652 C 87.76 43.801 87.019 43.06 86.108 43.06 z" style="stroke: none; stroke-width: 1; stroke-dasharray: none; stroke-linecap: butt; stroke-linejoin: miter; stroke-miterlimit: 10; fill: rgb(248,204,29); fill-rule: nonzero; opacity: 1;" transform=" matrix(1 0 0 1 0 0) " stroke-linecap="round" />
</g>
</svg>