<svg xmlns="http://www.w3.org/2000/svg" xmlns:xlink="http://www.w3.org/1999/xlink" version="1.1" width="256" height="256" viewBox="0 0 256 256" xml:space="preserve">

<defs>
</defs>
<g style="stroke: none; stroke-width: 0; stroke-dasharray: none; stroke-linecap: butt; stroke-linejoin: miter; stroke-miterlimit: 10; fill: none; fill-rule: nonzero; opacity: 1;" transform="translate(1.4065934065934016 1.4065934065934016) scale(2.81 2.81)" >
	<path d="M 37.371 15.259 C 16.731 15.259 0 31.99 0 52.629 c 0 7.95 2.49 15.315 6.723 21.373 L 0 90 l 15.998 -6.723 C 22.055 87.51 29.42 90 37.371 90 c 20.639 0 37.371 -16.731 37.371 -37.371 S 58.01 15.259 37.371 15.259 z" style="stroke: none; stroke-width: 1; stroke-dasharray: none; stroke-linecap: butt; stroke-linejoin: miter; stroke-miterlimit: 10; fill: rgb(255,197,95); fill-rule: nonzero; opacity: 1;" transform=" matrix(1 0 0 1 0 0) " stroke-linecap="round" />
	<path d="M 52.629 0 C 73.269 0 90 16.731 90 37.371 c 0 7.95 -2.49 15.315 -6.723 21.373 L 90 74.741 l -15.998 -6.723 c -6.058 4.232 -13.422 6.723 -21.373 6.723 c -20.639 0 -37.371 -16.731 -37.371 -37.371 S 31.99 0 52.629 0 z" style="stroke: none; stroke-width: 1; stroke-dasharray: none; stroke-linecap: butt; stroke-linejoin: miter; stroke-miterlimit: 10; fill: rgb(255,95,95); fill-rule: nonzero; opacity: 1;" transform=" matrix(1 0 0 1 0 0) " stroke-linecap="round" />
	<path d="M 52.63 50.671 c -1.657 0 -3 -1.343 -3 -3 v -4.987 c 0 -0.826 0.34 -1.615 0.94 -2.181 l 7.952 -7.509 c 1.466 -1.528 2.272 -3.533 2.272 -5.652 v -0.297 c 0 -2.221 -0.876 -4.298 -2.467 -5.849 s -3.697 -2.374 -5.916 -2.314 c -4.383 0.113 -7.948 3.887 -7.948 8.414 c 0 1.657 -1.343 3 -3 3 s -3 -1.343 -3 -3 c 0 -7.751 6.188 -14.216 13.794 -14.412 c 3.829 -0.104 7.498 1.326 10.258 4.015 s 4.279 6.292 4.279 10.146 v 0.297 c 0 3.71 -1.425 7.219 -4.013 9.878 c -0.03 0.03 -0.06 0.06 -0.091 0.089 l -7.062 6.668 v 3.694 C 55.63 49.328 54.287 50.671 52.63 50.671 z" style="stroke: none; stroke-width: 1; stroke-dasharray: none; stroke-linecap: butt; stroke-linejoin: miter; stroke-miterlimit: 10; fill: rgb(255,255,255); fill-rule: nonzero; opacity: 1;" transform=" matrix(1 0 0 1 0 0) " stroke-linecap="round" />
	<path d="M 52.63 62.359 c -0.23 0 -0.46 -0.02 -0.68 -0.069 c -0.23 -0.04 -0.45 -0.11 -0.66 -0.2 c -0.21 -0.08 -0.41 -0.19 -0.601 -0.32 c -0.189 -0.13 -0.37 -0.27 -0.529 -0.43 c -0.66 -0.65 -1.03 -1.56 -1.03 -2.48 c 0 -0.92 0.37 -1.819 1.02 -2.47 c 1.311 -1.31 3.65 -1.31 4.95 0 c 0.66 0.65 1.03 1.55 1.03 2.47 c 0 0.921 -0.37 1.83 -1.03 2.48 C 54.45 61.99 53.55 62.359 52.63 62.359 z" style="stroke: none; stroke-width: 1; stroke-dasharray: none; stroke-linecap: butt; stroke-linejoin: miter; stroke-miterlimit: 10; fill: rgb(255,255,255); fill-rule: nonzero; opacity: 1;" transform=" matrix(1 0 0 1 0 0) " stroke-linecap="round" />
</g>
</svg>