<svg xmlns="http://www.w3.org/2000/svg" xmlns:xlink="http://www.w3.org/1999/xlink" version="1.1" width="256" height="256" viewBox="0 0 256 256" xml:space="preserve">

<defs>
</defs>
<g style="stroke: none; stroke-width: 0; stroke-dasharray: none; stroke-linecap: butt; stroke-linejoin: miter; stroke-miterlimit: 10; fill: none; fill-rule: nonzero; opacity: 1;" transform="translate(1.4065934065934016 1.4065934065934016) scale(2.81 2.81)" >
	<path d="M 48.12 61.748 V 27.314 v -5.491 c 0 -10.831 -8.781 -19.612 -19.612 -19.612 h 0 c -10.831 0 -19.612 8.781 -19.612 19.612 v 5.491 v 34.434 H 48.12 z" style="stroke: none; stroke-width: 1; stroke-dasharray: none; stroke-linecap: butt; stroke-linejoin: miter; stroke-miterlimit: 10; fill: rgb(243,170,0); fill-rule: nonzero; opacity: 1;" transform=" matrix(1 0 0 1 0 0) " stroke-linecap="round" />
	<path d="M 42.322 57.47 c -2.979 -0.544 -5.143 -3.14 -5.143 -6.168 v -1.635 h -17.34 v 1.635 c 0 3.028 -2.164 5.624 -5.143 6.168 L 0 68.311 v 16.915 c 0 1.416 1.148 2.563 2.563 2.563 h 8.815 l 17.13 -4.34 l 17.13 4.34 h 8.815 c 1.416 0 2.563 -1.148 2.563 -2.563 V 68.311 L 42.322 57.47 z" style="stroke: none; stroke-width: 1; stroke-dasharray: none; stroke-linecap: butt; stroke-linejoin: miter; stroke-miterlimit: 10; fill: rgb(242,194,178); fill-rule: nonzero; opacity: 1;" transform=" matrix(1 0 0 1 0 0) " stroke-linecap="round" />
	<path d="M 13.302 39.882 l -5.182 0 c -1.117 0 -2.022 -0.905 -2.022 -2.022 v -8.524 c 0 -1.117 0.905 -2.022 2.022 -2.022 h 3.722 C 15.049 31.337 15.327 35.539 13.302 39.882 z" style="stroke: none; stroke-width: 1; stroke-dasharray: none; stroke-linecap: butt; stroke-linejoin: miter; stroke-miterlimit: 10; fill: rgb(38,111,183); fill-rule: nonzero; opacity: 1;" transform=" matrix(1 0 0 1 0 0) " stroke-linecap="round" />
	<path d="M 45.175 27.314 h 3.722 c 1.117 0 2.022 0.905 2.022 2.022 v 8.524 c 0 1.117 -0.905 2.022 -2.022 2.022 l -5.185 0 C 41.044 35.437 42.15 31.298 45.175 27.314 z" style="stroke: none; stroke-width: 1; stroke-dasharray: none; stroke-linecap: butt; stroke-linejoin: miter; stroke-miterlimit: 10; fill: rgb(38,111,183); fill-rule: nonzero; opacity: 1;" transform=" matrix(1 0 0 1 0 0) " stroke-linecap="round" />
	<path d="M 45.278 26.081 l -0.823 9.84 c -0.194 2.323 -0.787 4.548 -1.72 6.597 c -0.504 1.108 -1.107 2.164 -1.799 3.157 c -0.692 0.993 -1.474 1.922 -2.336 2.774 c -2.02 1.998 -4.479 3.579 -7.255 4.582 l 0 0 c -1.834 0.663 -3.841 0.663 -5.675 0 l 0 0 c -7.338 -2.652 -12.459 -9.335 -13.109 -17.111 l -0.883 -10.552 c 10.732 -1.443 18.209 -3.751 22.503 -8.11 C 37.501 21.195 40.431 23.483 45.278 26.081 z" style="stroke: none; stroke-width: 1; stroke-dasharray: none; stroke-linecap: butt; stroke-linejoin: miter; stroke-miterlimit: 10; fill: rgb(250,206,191); fill-rule: nonzero; opacity: 1;" transform=" matrix(1 0 0 1 0 0) " stroke-linecap="round" />
	<path d="M 17.325 30.192 c 0.431 -0.645 1.033 -1.084 1.698 -1.403 c 0.668 -0.309 1.412 -0.471 2.157 -0.472 c 0.746 -0.002 1.49 0.161 2.158 0.47 c 0.665 0.318 1.267 0.759 1.697 1.406 c -0.772 0.073 -1.426 0.046 -2.055 0.046 l -1.8 -0.021 l -1.801 0.018 C 18.75 30.234 18.097 30.262 17.325 30.192 z" style="stroke: none; stroke-width: 1; stroke-dasharray: none; stroke-linecap: butt; stroke-linejoin: miter; stroke-miterlimit: 10; fill: rgb(220,102,65); fill-rule: nonzero; opacity: 1;" transform=" matrix(1 0 0 1 0 0) " stroke-linecap="round" />
	<path d="M 31.981 30.192 c 0.431 -0.645 1.033 -1.084 1.698 -1.403 c 0.668 -0.309 1.412 -0.471 2.157 -0.472 c 0.746 -0.002 1.49 0.161 2.158 0.47 c 0.665 0.318 1.267 0.759 1.697 1.406 c -0.772 0.073 -1.426 0.046 -2.055 0.046 l -1.8 -0.021 l -1.801 0.018 C 33.406 30.234 32.753 30.262 31.981 30.192 z" style="stroke: none; stroke-width: 1; stroke-dasharray: none; stroke-linecap: butt; stroke-linejoin: miter; stroke-miterlimit: 10; fill: rgb(220,102,65); fill-rule: nonzero; opacity: 1;" transform=" matrix(1 0 0 1 0 0) " stroke-linecap="round" />
	<path d="M 22.803 41.545 c 1.056 0.465 1.996 0.951 2.942 1.281 c 0.939 0.34 1.853 0.534 2.76 0.538 c 0.907 -0.009 1.821 -0.205 2.761 -0.546 c 0.947 -0.331 1.888 -0.814 2.947 -1.274 c -0.508 1.034 -1.28 1.912 -2.25 2.597 c -0.968 0.676 -2.189 1.121 -3.456 1.124 c -1.267 -0.002 -2.49 -0.445 -3.458 -1.122 C 24.08 43.458 23.309 42.579 22.803 41.545 z" style="stroke: none; stroke-width: 1; stroke-dasharray: none; stroke-linecap: butt; stroke-linejoin: miter; stroke-miterlimit: 10; fill: rgb(220,102,65); fill-rule: nonzero; opacity: 1;" transform=" matrix(1 0 0 1 0 0) " stroke-linecap="round" />
	<path d="M 38.809 48.199 H 32.6 c -0.526 0 -0.951 -0.425 -0.951 -0.951 s 0.425 -0.951 0.951 -0.951 h 6.209 c 3.538 0 6.416 -2.878 6.416 -6.415 c 0 -0.525 0.425 -0.951 0.951 -0.951 s 0.951 0.426 0.951 0.951 C 47.126 44.468 43.395 48.199 38.809 48.199 z" style="stroke: none; stroke-width: 1; stroke-dasharray: none; stroke-linecap: butt; stroke-linejoin: miter; stroke-miterlimit: 10; fill: rgb(38,111,183); fill-rule: nonzero; opacity: 1;" transform=" matrix(1 0 0 1 0 0) " stroke-linecap="round" />
	<path d="M 11.378 87.789 h 17.13 c 0 0 17.13 0 17.13 0 v -5.813 c 0 -2.172 0.921 -4.241 2.534 -5.695 l 8.844 -7.969 c 0 0 0 -1.04 0 -1.04 c 0 -4.121 -2.945 -7.654 -6.999 -8.395 c 0 0 -7.696 -1.407 -7.696 -1.407 c -2.862 8.398 -7.565 14.779 -13.813 19.469 c -6.248 -4.69 -10.951 -11.071 -13.813 -19.469 c 0 0 -7.696 1.407 -7.696 1.407 C 2.945 59.617 0 63.15 0 67.271 c 0 0 0 1.04 0 1.04 l 8.844 7.969 c 1.613 1.454 2.534 3.523 2.534 5.695 C 11.378 81.975 11.378 87.789 11.378 87.789 z" style="stroke: none; stroke-width: 1; stroke-dasharray: none; stroke-linecap: butt; stroke-linejoin: miter; stroke-miterlimit: 10; fill: rgb(38,111,183); fill-rule: nonzero; opacity: 1;" transform=" matrix(1 0 0 1 0 0) " stroke-linecap="round" />
	<path d="M 69.776 63.442 l -10.55 9.706 c -0.593 0.546 -2.143 1.323 -2.209 -1.274 l 0 0 l -4.054 1.143 v 14.773 h 2.186 c 2.38 0 4.64 -1.045 6.182 -2.859 l 18.083 -21.273 L 69.776 63.442 z" style="stroke: none; stroke-width: 1; stroke-dasharray: none; stroke-linecap: butt; stroke-linejoin: miter; stroke-miterlimit: 10; fill: rgb(242,194,178); fill-rule: nonzero; opacity: 1;" transform=" matrix(1 0 0 1 0 0) " stroke-linecap="round" />
	<path d="M 79.414 63.657 h 0.797 c 3.291 0 5.959 -2.668 5.959 -5.959 v -0.797 H 75.735 c -3.291 0 -5.959 2.668 -5.959 5.959 l 0 0.582 C 72.199 64.62 75.501 64.566 79.414 63.657 z" style="stroke: none; stroke-width: 1; stroke-dasharray: none; stroke-linecap: butt; stroke-linejoin: miter; stroke-miterlimit: 10; fill: rgb(250,206,191); fill-rule: nonzero; opacity: 1;" transform=" matrix(1 0 0 1 0 0) " stroke-linecap="round" />
	<path d="M 83.095 46.55 v 5.047 c 0 1.178 -0.955 2.132 -2.132 2.132 H 79.78 c -1.178 0 -2.132 -0.955 -2.132 -2.132 v -5.05 L 83.095 46.55 z" style="stroke: none; stroke-width: 1; stroke-dasharray: none; stroke-linecap: butt; stroke-linejoin: miter; stroke-miterlimit: 10; fill: rgb(204,204,204); fill-rule: nonzero; opacity: 1;" transform=" matrix(1 0 0 1 0 0) " stroke-linecap="round" />
	<circle cx="80.369" cy="37.309" r="9.629" style="stroke: none; stroke-width: 1; stroke-dasharray: none; stroke-linecap: butt; stroke-linejoin: miter; stroke-miterlimit: 10; fill: rgb(243,170,0); fill-rule: nonzero; opacity: 1;" transform="  matrix(1 0 0 1 0 0) "/>
	<path d="M 76.1 38.726 c 0.278 -0.749 0.622 -1.443 1.008 -2.102 c 0.374 -0.669 0.793 -1.299 1.23 -1.915 l 0.569 -0.801 l 0.776 0.808 c 1.036 1.079 1.982 2.233 2.832 3.466 l -1.305 -0.016 c 0.512 -0.494 1.042 -0.972 1.616 -1.412 c 0.562 -0.45 1.156 -0.873 1.817 -1.238 c -0.268 0.705 -0.603 1.353 -0.97 1.973 c -0.355 0.63 -0.754 1.222 -1.171 1.799 l -0.547 0.757 l -0.759 -0.774 c -1.048 -1.069 -2.001 -2.217 -2.863 -3.44 l 1.344 0.007 c -0.532 0.535 -1.082 1.056 -1.678 1.538 C 77.417 37.867 76.791 38.324 76.1 38.726 z" style="stroke: none; stroke-width: 1; stroke-dasharray: none; stroke-linecap: butt; stroke-linejoin: miter; stroke-miterlimit: 10; fill: rgb(255,255,255); fill-rule: nonzero; opacity: 1;" transform=" matrix(1 0 0 1 0 0) " stroke-linecap="round" />
</g>
</svg>