<svg xmlns="http://www.w3.org/2000/svg" xmlns:xlink="http://www.w3.org/1999/xlink" version="1.1" width="256" height="256" viewBox="0 0 256 256" xml:space="preserve">

<defs>
</defs>
<g style="stroke: none; stroke-width: 0; stroke-dasharray: none; stroke-linecap: butt; stroke-linejoin: miter; stroke-miterlimit: 10; fill: none; fill-rule: nonzero; opacity: 1;" transform="translate(1.4065934065934016 1.4065934065934016) scale(2.81 2.81)" >
	<circle cx="60.913" cy="45.003" r="27.083" style="stroke: none; stroke-width: 1; stroke-dasharray: none; stroke-linecap: butt; stroke-linejoin: miter; stroke-miterlimit: 10; fill: rgb(62,255,76); fill-rule: nonzero; opacity: 1;" transform="  matrix(1 0 0 1 0 0) "/>
	<path d="M 60.917 74.083 C 44.88 74.083 31.833 61.036 31.833 45 c 0 -16.037 13.047 -29.083 29.084 -29.083 C 76.953 15.917 90 28.963 90 45 C 90 61.036 76.953 74.083 60.917 74.083 z M 60.917 19.917 c -13.831 0 -25.084 11.252 -25.084 25.083 s 11.253 25.083 25.084 25.083 S 86 58.831 86 45 S 74.748 19.917 60.917 19.917 z" style="stroke: none; stroke-width: 1; stroke-dasharray: none; stroke-linecap: butt; stroke-linejoin: miter; stroke-miterlimit: 10; fill: rgb(0,0,0); fill-rule: nonzero; opacity: 1;" transform=" matrix(1 0 0 1 0 0) " stroke-linecap="round" />
	<path d="M 71.103 55.353 c -5.136 0 -9.314 -4.645 -9.314 -10.353 s 4.179 -10.352 9.314 -10.352 S 80.417 39.292 80.417 45 S 76.238 55.353 71.103 55.353 z M 71.103 38.648 c -2.931 0 -5.314 2.85 -5.314 6.352 c 0 3.503 2.384 6.353 5.314 6.353 s 5.314 -2.85 5.314 -6.353 C 76.417 41.498 74.033 38.648 71.103 38.648 z" style="stroke: none; stroke-width: 1; stroke-dasharray: none; stroke-linecap: butt; stroke-linejoin: miter; stroke-miterlimit: 10; fill: rgb(0,0,0); fill-rule: nonzero; opacity: 1;" transform=" matrix(1 0 0 1 0 0) " stroke-linecap="round" />
	<path d="M 51.769 55.353 c -5.708 0 -10.352 -4.645 -10.352 -10.353 s 4.644 -10.352 10.352 -10.352 c 1.973 0 3.895 0.56 5.557 1.62 c 0.932 0.593 1.206 1.83 0.612 2.761 c -0.593 0.931 -1.828 1.206 -2.761 0.612 c -1.02 -0.649 -2.198 -0.993 -3.408 -0.993 c -3.503 0 -6.352 2.85 -6.352 6.352 c 0 3.503 2.849 6.353 6.352 6.353 c 0.858 0 1.701 -0.173 2.482 -0.506 V 47 h -3.242 c -1.104 0 -2 -0.896 -2 -2 s 0.896 -2 2 -2 h 5.242 c 1.104 0 2 0.896 2 2 v 7.046 c 0 0.684 -0.349 1.319 -0.925 1.687 C 55.663 54.792 53.742 55.353 51.769 55.353 z" style="stroke: none; stroke-width: 1; stroke-dasharray: none; stroke-linecap: butt; stroke-linejoin: miter; stroke-miterlimit: 10; fill: rgb(0,0,0); fill-rule: nonzero; opacity: 1;" transform=" matrix(1 0 0 1 0 0) " stroke-linecap="round" />
	<path d="M 24.425 48.002 H 2 c -1.104 0 -2 -0.896 -2 -2 s 0.896 -2 2 -2 h 22.425 c 1.104 0 2 0.896 2 2 S 25.53 48.002 24.425 48.002 z" style="stroke: none; stroke-width: 1; stroke-dasharray: none; stroke-linecap: butt; stroke-linejoin: miter; stroke-miterlimit: 10; fill: rgb(0,0,0); fill-rule: nonzero; opacity: 1;" transform=" matrix(1 0 0 1 0 0) " stroke-linecap="round" />
	<path d="M 28.987 32.797 H 6.562 c -1.104 0 -2 -0.896 -2 -2 s 0.896 -2 2 -2 h 22.425 c 1.104 0 2 0.896 2 2 S 30.091 32.797 28.987 32.797 z" style="stroke: none; stroke-width: 1; stroke-dasharray: none; stroke-linecap: butt; stroke-linejoin: miter; stroke-miterlimit: 10; fill: rgb(0,0,0); fill-rule: nonzero; opacity: 1;" transform=" matrix(1 0 0 1 0 0) " stroke-linecap="round" />
	<path d="M 28.987 63.206 H 6.562 c -1.104 0 -2 -0.896 -2 -2 s 0.896 -2 2 -2 h 22.425 c 1.104 0 2 0.896 2 2 S 30.091 63.206 28.987 63.206 z" style="stroke: none; stroke-width: 1; stroke-dasharray: none; stroke-linecap: butt; stroke-linejoin: miter; stroke-miterlimit: 10; fill: rgb(0,0,0); fill-rule: nonzero; opacity: 1;" transform=" matrix(1 0 0 1 0 0) " stroke-linecap="round" />
</g>
</svg>