<svg xmlns="http://www.w3.org/2000/svg" xmlns:xlink="http://www.w3.org/1999/xlink" version="1.1" width="256" height="256" viewBox="0 0 256 256" xml:space="preserve">

<defs>
</defs>
<g style="stroke: none; stroke-width: 0; stroke-dasharray: none; stroke-linecap: butt; stroke-linejoin: miter; stroke-miterlimit: 10; fill: none; fill-rule: nonzero; opacity: 1;" transform="translate(1.4065934065934016 1.4065934065934016) scale(2.81 2.81)" >
	<path d="M 27.595 83.981 c -0.194 0 -0.389 -0.057 -0.56 -0.172 C 18.182 77.821 12.896 67.874 12.896 57.2 c 0 -0.083 0.01 -0.164 0.029 -0.241 c 0.053 -4.33 1.521 -8.43 3.073 -12.766 c 2.563 -7.163 5.215 -14.569 1.81 -24.013 c -0.129 -0.359 -0.043 -0.76 0.222 -1.035 s 0.665 -0.374 1.026 -0.256 c 5.459 1.764 12.147 4.673 16.225 11.605 c 8.892 -8.362 8.007 -18.994 5.681 -29.273 c -0.093 -0.412 0.083 -0.838 0.439 -1.065 c 0.356 -0.226 0.818 -0.205 1.15 0.055 c 9.22 7.179 13.994 16.584 14.235 28.009 c 2.784 -4.448 6.833 -7.01 10.621 -8.947 c 0.354 -0.181 0.783 -0.135 1.091 0.118 c 0.308 0.253 0.436 0.665 0.325 1.048 c -2.961 10.316 0.771 17.669 4.063 24.156 c 2.115 4.167 4.114 8.106 4.188 12.364 c 0.02 0.077 0.029 0.158 0.029 0.241 c 0 10.674 -5.285 20.621 -14.139 26.609 c -0.4 0.271 -0.938 0.218 -1.276 -0.13 c -0.338 -0.346 -0.379 -0.885 -0.099 -1.278 c 2.438 -3.425 3.744 -7.436 3.78 -11.612 c -0.012 -0.059 -0.018 -0.119 -0.018 -0.181 c 0 -2.743 -0.979 -5.476 -2.014 -8.368 c -1.609 -4.495 -3.412 -9.533 -1.842 -15.692 c -4.32 1.691 -7.056 3.977 -8.746 7.258 c -0.14 0.272 -0.396 0.465 -0.697 0.523 c -0.303 0.06 -0.611 -0.023 -0.843 -0.223 c -3.933 -3.379 -3.553 -7.471 -3.187 -11.429 c 0.226 -2.436 0.442 -4.78 -0.225 -7.063 c -0.736 2.363 -2.403 4.521 -4.134 6.763 c -2.638 3.416 -5.365 6.948 -4.97 11.548 c 0.043 0.505 -0.297 0.963 -0.794 1.065 c -0.497 0.102 -0.99 -0.183 -1.151 -0.663 c -1.192 -3.575 -3.467 -5.664 -5.978 -7.201 c 1.157 6.548 -1.267 11.322 -3.43 15.585 c -1.446 2.85 -2.695 5.312 -2.695 7.896 c 0 0.065 -0.006 0.129 -0.018 0.19 c 0.039 4.174 1.344 8.182 3.78 11.603 c 0.281 0.394 0.239 0.933 -0.099 1.278 C 28.117 83.879 27.857 83.981 27.595 83.981 z M 77.076 57.199 h 0.01 H 77.076 z" style="stroke: none; stroke-width: 1; stroke-dasharray: none; stroke-linecap: butt; stroke-linejoin: miter; stroke-miterlimit: 10; fill: rgb(206,58,58); fill-rule: nonzero; opacity: 1;" transform=" matrix(1 0 0 1 0 0) " stroke-linecap="round" />
	<path d="M 45 76.59 c -4.151 0 -7.528 -3.377 -7.528 -7.528 c 0 -4.15 3.377 -7.527 7.528 -7.527 c 4.15 0 7.527 3.377 7.527 7.527 C 52.527 73.213 49.15 76.59 45 76.59 z" style="stroke: none; stroke-width: 1; stroke-dasharray: none; stroke-linecap: butt; stroke-linejoin: miter; stroke-miterlimit: 10; fill: rgb(19,38,68); fill-rule: nonzero; opacity: 1;" transform=" matrix(1 0 0 1 0 0) " stroke-linecap="round" />
	<path d="M 45 90 c -4.759 0 -9.378 -1.697 -13.005 -4.778 c -0.313 -0.265 -0.431 -0.694 -0.3 -1.082 c 1.935 -5.712 7.281 -9.55 13.305 -9.55 c 6.024 0 11.371 3.838 13.305 9.55 c 0.132 0.388 0.013 0.817 -0.3 1.082 C 54.377 88.303 49.759 90 45 90 z" style="stroke: none; stroke-width: 1; stroke-dasharray: none; stroke-linecap: butt; stroke-linejoin: miter; stroke-miterlimit: 10; fill: rgb(19,38,68); fill-rule: nonzero; opacity: 1;" transform=" matrix(1 0 0 1 0 0) " stroke-linecap="round" />
</g>
</svg>