<svg xmlns="http://www.w3.org/2000/svg" xmlns:xlink="http://www.w3.org/1999/xlink" version="1.1" width="256" height="256" viewBox="0 0 256 256" xml:space="preserve">

<defs>
</defs>
<g style="stroke: none; stroke-width: 0; stroke-dasharray: none; stroke-linecap: butt; stroke-linejoin: miter; stroke-miterlimit: 10; fill: none; fill-rule: nonzero; opacity: 1;" transform="translate(1.4065934065934016 1.4065934065934016) scale(2.81 2.81)" >
	<path d="M 83.616 64.941 H 6.384 C 3.41 64.941 1 62.53 1 59.557 V 10.962 c 0 -2.973 2.41 -5.384 5.384 -5.384 h 77.233 c 2.973 0 5.384 2.41 5.384 5.384 v 48.595 C 89 62.53 86.59 64.941 83.616 64.941 z" style="stroke: none; stroke-width: 1; stroke-dasharray: none; stroke-linecap: butt; stroke-linejoin: miter; stroke-miterlimit: 10; fill: rgb(241,244,248); fill-rule: nonzero; opacity: 1;" transform=" matrix(1 0 0 1 0 0) " stroke-linecap="round" />
	<rect x="29.34" y="64.94" rx="0" ry="0" width="31.32" height="10.83" style="stroke: none; stroke-width: 1; stroke-dasharray: none; stroke-linecap: butt; stroke-linejoin: miter; stroke-miterlimit: 10; fill: rgb(16,22,26); fill-rule: nonzero; opacity: 1;" transform=" matrix(1 0 0 1 0 0) "/>
	<path d="M 71.549 84.422 H 18.451 v 0 c 0 -4.778 3.873 -8.651 8.651 -8.651 h 35.797 C 67.676 75.771 71.549 79.644 71.549 84.422 L 71.549 84.422 z" style="stroke: none; stroke-width: 1; stroke-dasharray: none; stroke-linecap: butt; stroke-linejoin: miter; stroke-miterlimit: 10; fill: rgb(71,78,83); fill-rule: nonzero; opacity: 1;" transform=" matrix(1 0 0 1 0 0) " stroke-linecap="round" />
	<path d="M 83.616 65.94 H 6.384 C 2.864 65.94 0 63.077 0 59.558 V 10.962 c 0 -3.52 2.864 -6.384 6.384 -6.384 h 77.232 c 3.521 0 6.384 2.864 6.384 6.384 v 48.596 C 90 63.077 87.137 65.94 83.616 65.94 z M 6.384 6.578 C 3.967 6.578 2 8.545 2 10.962 v 48.596 c 0 2.417 1.967 4.383 4.384 4.383 h 77.232 c 2.417 0 4.384 -1.966 4.384 -4.383 V 10.962 c 0 -2.417 -1.967 -4.384 -4.384 -4.384 H 6.384 z" style="stroke: none; stroke-width: 1; stroke-dasharray: none; stroke-linecap: butt; stroke-linejoin: miter; stroke-miterlimit: 10; fill: rgb(11,10,10); fill-rule: nonzero; opacity: 1;" transform=" matrix(1 0 0 1 0 0) " stroke-linecap="round" />
	<path d="M 60.661 76.771 H 29.339 c -0.552 0 -1 -0.447 -1 -1 V 64.94 c 0 -0.553 0.448 -1 1 -1 h 31.322 c 0.553 0 1 0.447 1 1 v 10.831 C 61.661 76.324 61.214 76.771 60.661 76.771 z M 30.339 74.771 h 29.322 V 65.94 H 30.339 V 74.771 z" style="stroke: none; stroke-width: 1; stroke-dasharray: none; stroke-linecap: butt; stroke-linejoin: miter; stroke-miterlimit: 10; fill: rgb(11,10,10); fill-rule: nonzero; opacity: 1;" transform=" matrix(1 0 0 1 0 0) " stroke-linecap="round" />
	<path d="M 71.549 85.422 H 18.451 c -0.552 0 -1 -0.447 -1 -1 c 0 -5.321 4.33 -9.65 9.651 -9.65 h 35.797 c 5.321 0 9.65 4.329 9.65 9.65 C 72.549 84.975 72.102 85.422 71.549 85.422 z M 19.516 83.422 h 50.968 c -0.491 -3.748 -3.705 -6.65 -7.585 -6.65 H 27.102 C 23.222 76.771 20.007 79.674 19.516 83.422 z" style="stroke: none; stroke-width: 1; stroke-dasharray: none; stroke-linecap: butt; stroke-linejoin: miter; stroke-miterlimit: 10; fill: rgb(11,10,10); fill-rule: nonzero; opacity: 1;" transform=" matrix(1 0 0 1 0 0) " stroke-linecap="round" />
	<path d="M 39.682 50.131 c -0.354 0 -0.684 -0.188 -0.864 -0.496 L 27.129 29.609 l -4.602 11.25 c -0.146 0.356 -0.482 0.597 -0.866 0.62 c -0.385 0.028 -0.747 -0.176 -0.934 -0.511 l -3.787 -6.795 H 9.773 c -0.552 0 -1 -0.448 -1 -1 s 0.448 -1 1 -1 h 7.756 c 0.363 0 0.697 0.196 0.874 0.513 l 3.061 5.493 l 4.582 -11.201 c 0.145 -0.353 0.476 -0.592 0.856 -0.619 c 0.389 -0.021 0.742 0.165 0.934 0.494 l 11.701 20.046 l 11.753 -27.983 c 0.148 -0.354 0.487 -0.592 0.871 -0.611 c 0.407 -0.021 0.745 0.183 0.929 0.52 l 13.439 24.665 L 71.51 32.75 c 0.164 -0.353 0.518 -0.579 0.907 -0.579 h 7.811 c 0.553 0 1 0.448 1 1 s -0.447 1 -1 1 h -7.172 L 67.507 46.13 c -0.159 0.342 -0.497 0.566 -0.875 0.578 c -0.381 -0.008 -0.729 -0.189 -0.91 -0.521 L 52.328 21.604 L 40.604 49.519 c -0.146 0.349 -0.479 0.585 -0.856 0.61 C 39.726 50.13 39.704 50.131 39.682 50.131 z" style="stroke: none; stroke-width: 1; stroke-dasharray: none; stroke-linecap: butt; stroke-linejoin: miter; stroke-miterlimit: 10; fill: rgb(11,10,10); fill-rule: nonzero; opacity: 1;" transform=" matrix(1 0 0 1 0 0) " stroke-linecap="round" />
</g>
</svg>